{"title":"Formula.1.2016x17.Japan.Qualifying.SkyF1HD.1080p50-smcgill1969","uid":15992600,"size":7509020246,"categoryP":"video","categoryS":"other","magnet":"?xt=urn:btih:0654f0c43b484cf04a65838dedc33a72f7283691&amp;dn=Formula.1.2016x17.Japan.Qualifying.SkyF1HD.1080p50-smcgill1969&amp;tr=udp%3A%2F%2Ftracker.leechers-paradise.org%3A6969&amp;tr=udp%3A%2F%2Fzer0day.ch%3A1337&amp;tr=udp%3A%2F%2Fopen.demonii.com%3A1337&amp;tr=udp%3A%2F%2Ftracker.coppersurfer.tk%3A6969&amp;tr=udp%3A%2F%2Fexodus.desync.com%3A6969","seeders":23,"leechers":13,"uploader":"GaYoonFan","files":3,"time":1476032912,"description":"Formula.1.2016x17.Japan.Qualifying.SkyF1HD.1080p50-smcgill1969:\r\n\r\nQualifying from the Japanese Grand Prix, held at Suzuka Circuit.\r\n\r\n Video\r\n ID : 1\r\n Format : AVC\r\n Format/Info : Advanced Video Codec\r\n Format profile :   \r\n Format settings, CABAC : Yes\r\n Format settings, ReFrames : 2 frames\r\n Format settings, GOP : M=3, N=24\r\n Codec ID : avc1\r\n Codec ID/Info : Advanced Video Coding\r\n Duration : 54mn 47s\r\n Duration_FirstFrame : 15ms\r\n Bit rate mode : Variable\r\n Bit rate : 6 001 Kbps\r\n Maximum bit rate : 12.4 Mbps\r\n Width : 1 920 pixels\r\n Height : 1 080 pixels\r\n Original height : 1 088 pixels\r\n Display aspect ratio : 16:9\r\n Original display aspect ratio : 16:9\r\n Frame rate mode : Constant\r\n Frame rate : 50.000 fps\r\n Color space : YUV\r\n Chroma subsampling : 4:2:0\r\n Bit depth : 8 bits\r\n Scan type : Progressive\r\n Bits/(Pixel*Frame) : 0.058\r\n Stream size : 2.30 GiB (96%)\r\n Language : English\r\n Encoded date : UTC 2016-10-08 04:55:48\r\n Tagged date : UTC 2016-10-08 05:55:14\r\n\r\n Audio\r\n ID : 2\r\n Format : AAC\r\n Format/Info : Advanced Audio Codec\r\n Format profile : LC\r\n Codec ID : 40\r\n Duration : 54mn 47s\r\n Bit rate mode : Constant\r\n Bit rate : 256 Kbps\r\n Channel(s) : 2 channels\r\n Channel positions : Front: L R\r\n Sampling rate : 48.0 KHz\r\n Frame rate : 46.875 fps (1024 spf)\r\n Compression mode : Lossy\r\n Stream size : 99.3 MiB (4%)\r\n Language : English\r\n Encoded date : UTC 2016-10-08 04:55:48\r\n Tagged date : UTC 2016-10-08 05:55:14","torrent":{"xt":"urn:btih:0654f0c43b484cf04a65838dedc33a72f7283691","amp;dn":"Formula.1.2016x17.Japan.Qualifying.SkyF1HD.1080p50-smcgill1969","amp;tr":["udp%3A%2F%2Ftracker.leechers-paradise.org%3A6969","udp%3A%2F%2Fzer0day.ch%3A1337","udp%3A%2F%2Fopen.demonii.com%3A1337","udp%3A%2F%2Ftracker.coppersurfer.tk%3A6969","udp%3A%2F%2Fexodus.desync.com%3A6969"],"infoHash":"0654f0c43b484cf04a65838dedc33a72f7283691","infoHashBuffer":{"type":"Buffer","data":[6,84,240,196,59,72,76,240,74,101,131,141,237,195,58,114,247,40,54,145]},"announce":[],"urlList":[]}}